<?xml version="1.0" standalone="no"?>
<!DOCTYPE svg PUBLIC "-//W3C//DTD SVG 20010904//EN"
 "http://www.w3.org/TR/2001/REC-SVG-20010904/DTD/svg10.dtd">
<svg version="1.0" xmlns="http://www.w3.org/2000/svg"
 width="700.000000pt" height="700.000000pt" viewBox="0 0 700.000000 700.000000"
 preserveAspectRatio="xMidYMid meet">
<metadata>
Created by potrace 1.11, written by Peter Selinger 2001-2013
</metadata>
<g transform="translate(0.000000,700.000000) scale(0.100000,-0.100000)"
fill="#000000" stroke="none">
<path d="M0 3500 l0 -3500 3500 0 3500 0 0 3500 0 3500 -3500 0 -3500 0 0
-3500z m5035 605 c59 -17 133 -64 171 -108 42 -50 83 -145 94 -222 5 -38 10
-226 10 -417 l0 -348 -85 0 -85 0 0 35 c0 19 -2 35 -4 35 -2 0 -18 -13 -35
-29 -45 -42 -91 -54 -181 -49 -60 4 -87 10 -122 31 -58 34 -104 87 -137 157
-24 50 -26 66 -26 185 0 126 1 132 33 196 34 71 77 115 145 151 33 18 59 22
127 23 75 0 90 -3 133 -28 26 -15 47 -32 47 -37 0 -6 5 -10 11 -10 8 0 10 20
6 65 -7 91 -39 151 -102 190 -46 28 -54 30 -154 30 -129 0 -177 -19 -261 -105
-103 -105 -149 -233 -157 -441 -6 -162 9 -253 63 -367 115 -241 398 -339 638
-221 33 16 60 28 61 27 2 -2 19 -35 39 -75 l36 -72 -65 -31 c-168 -80 -397
-79 -570 3 -255 122 -387 388 -372 747 9 193 45 325 123 448 133 207 381 302
619 237z m1855 -3090 l0 -835 -50 0 -50 0 0 835 0 835 50 0 50 0 0 -835z
m-6358 198 c3 -547 4 -569 23 -602 39 -66 62 -76 201 -79 l124 -4 0 -70 0 -71
-143 5 c-171 7 -225 25 -287 95 -75 86 -74 75 -80 653 l-5 515 -132 3 -133 3
0 59 0 60 215 0 214 0 3 -567z m4559 380 c111 -55 185 -155 209 -283 6 -29 10
-217 10 -426 l0 -374 -85 0 -85 0 0 36 0 36 -34 -30 c-49 -42 -96 -55 -185
-50 -92 6 -140 28 -200 93 -54 58 -78 112 -93 209 -29 186 49 366 185 427 40
18 70 24 132 24 84 0 124 -14 173 -59 l24 -21 -7 60 c-20 162 -105 232 -273
223 -100 -5 -174 -38 -243 -110 -212 -221 -209 -723 6 -933 142 -139 363 -173
538 -84 33 16 60 29 62 27 24 -35 75 -143 72 -152 -8 -20 -143 -73 -222 -87
-84 -14 -238 -6 -315 17 -237 70 -399 260 -455 529 -19 94 -22 310 -5 406 49
283 207 481 433 544 35 10 91 14 172 12 113 -2 124 -4 186 -34z m-3376 -213
c43 -17 76 -40 117 -80 91 -91 93 -102 93 -540 l0 -365 -77 -3 -78 -3 0 75 0
74 -62 -62 c-81 -81 -134 -101 -268 -101 -117 0 -175 20 -242 83 -61 57 -88
126 -88 225 0 90 12 133 53 193 22 34 50 58 93 81 88 48 171 63 357 63 l158 0
-7 58 c-15 130 -75 184 -215 197 -97 10 -206 -15 -356 -82 -10 -4 -13 15 -13
74 l0 80 73 21 c129 38 150 41 277 38 101 -3 137 -8 185 -26z m1109 18 c25 -8
61 -32 93 -63 43 -42 55 -62 75 -125 22 -73 23 -85 23 -445 l0 -370 -77 -3
-76 -3 -4 363 c-4 405 -6 418 -74 478 -43 37 -67 43 -148 38 -74 -4 -122 -31
-161 -90 -49 -74 -55 -125 -55 -470 l0 -318 -80 0 -80 0 0 500 0 500 80 0 79
0 3 -72 3 -73 23 36 c29 48 84 89 147 111 59 20 170 23 229 6z m1018 1 c73
-15 163 -65 203 -112 67 -78 69 -90 73 -514 l3 -383 -80 0 -81 0 0 76 0 76
-33 -44 c-40 -52 -121 -103 -189 -117 -176 -38 -336 23 -403 154 -27 53 -30
68 -30 149 1 110 26 176 87 232 86 77 188 103 412 104 l159 0 -6 59 c-10 115
-60 171 -172 192 -97 18 -248 -7 -346 -57 -27 -13 -53 -24 -59 -24 -7 0 -10
27 -8 78 l3 77 55 18 c134 46 299 60 412 36z"/>
<path d="M4910 3583 c-8 -3 -30 -19 -48 -37 -93 -88 -74 -318 31 -372 44 -23
127 -22 169 3 18 10 44 39 58 64 21 38 25 57 25 134 0 80 -3 95 -27 136 -17
28 -41 53 -62 63 -33 15 -114 20 -146 9z"/>
<path d="M4889 1067 c-53 -35 -79 -97 -78 -187 0 -41 6 -90 12 -108 49 -134
235 -146 296 -18 16 32 21 62 21 122 0 95 -25 156 -79 191 -47 32 -125 32
-172 0z"/>
<path d="M1468 889 c-132 -19 -198 -86 -198 -200 0 -132 115 -210 263 -179
139 28 223 145 229 320 l3 65 -120 1 c-66 1 -146 -2 -177 -7z"/>
<path d="M3662 890 c-70 -10 -142 -48 -169 -89 -61 -90 -26 -227 71 -278 41
-22 167 -22 217 0 110 49 178 173 179 325 l0 52 -122 -1 c-68 -1 -147 -5 -176
-9z"/>
</g>
</svg>
