<?xml version="1.0" encoding="UTF-8" standalone="no"?>
<!DOCTYPE svg PUBLIC "-//W3C//DTD SVG 1.1//EN" "http://www.w3.org/Graphics/SVG/1.1/DTD/svg11.dtd">
<svg width="100%" height="100%" viewBox="0 0 64 64" version="1.1" xmlns="http://www.w3.org/2000/svg" xmlns:xlink="http://www.w3.org/1999/xlink" xml:space="preserve" xmlns:serif="http://www.serif.com/" style="fill-rule:evenodd;clip-rule:evenodd;stroke-linejoin:round;stroke-miterlimit:2;">
    <g transform="matrix(0.955224,0,0,0.955224,2.86567,2.86567)">
        <rect x="-3" y="-3" width="67" height="67"/>
    </g>
    <g transform="matrix(1,0,0,1,-4.51238,47.4256)">
        <g transform="matrix(16.6667,0,0,16.6667,3.49838,12.9784)">
            <path d="M0.351,-0.198L0.351,-0.763L0.117,-0.763L0.117,-0.692L0.261,-0.692L0.261,-0.198C0.261,-0.135 0.276,-0.086 0.305,-0.052C0.335,-0.017 0.376,0 0.43,0L0.544,0L0.544,-0.076L0.439,-0.076C0.41,-0.076 0.388,-0.086 0.373,-0.106C0.358,-0.127 0.351,-0.157 0.351,-0.198Z" style="fill:rgb(0,255,0);fill-rule:nonzero;"/>
        </g>
        <g transform="matrix(16.6667,0,0,16.6667,13.5326,12.9784)">
            <path d="M0.313,-0.275L0.427,-0.275L0.427,-0.255C0.426,-0.194 0.412,-0.147 0.384,-0.113C0.355,-0.078 0.317,-0.061 0.267,-0.061C0.232,-0.061 0.204,-0.07 0.185,-0.088C0.165,-0.107 0.155,-0.132 0.155,-0.165C0.155,-0.201 0.168,-0.229 0.195,-0.247C0.221,-0.266 0.261,-0.275 0.313,-0.275ZM0.517,-0.312C0.517,-0.36 0.514,-0.396 0.509,-0.42C0.504,-0.444 0.495,-0.464 0.483,-0.48C0.463,-0.507 0.437,-0.527 0.405,-0.54C0.373,-0.553 0.334,-0.56 0.289,-0.56C0.26,-0.56 0.231,-0.557 0.2,-0.551C0.17,-0.544 0.138,-0.535 0.105,-0.522L0.105,-0.432C0.135,-0.449 0.165,-0.462 0.196,-0.471C0.228,-0.479 0.258,-0.484 0.289,-0.484C0.337,-0.484 0.372,-0.474 0.394,-0.454C0.415,-0.435 0.426,-0.403 0.427,-0.359L0.427,-0.345L0.306,-0.345C0.227,-0.345 0.167,-0.329 0.126,-0.298C0.085,-0.266 0.065,-0.22 0.065,-0.159C0.065,-0.106 0.082,-0.064 0.115,-0.033C0.148,-0.002 0.192,0.014 0.248,0.014C0.29,0.014 0.325,0.006 0.354,-0.009C0.383,-0.024 0.408,-0.049 0.427,-0.081L0.427,0L0.517,0L0.517,-0.312Z" style="fill:rgb(0,255,0);fill-rule:nonzero;"/>
        </g>
        <g transform="matrix(16.6667,0,0,16.6667,23.5667,12.9784)">
            <path d="M0.513,-0.339C0.513,-0.413 0.499,-0.469 0.472,-0.505C0.444,-0.542 0.403,-0.56 0.347,-0.56C0.31,-0.56 0.277,-0.552 0.25,-0.536C0.223,-0.52 0.201,-0.496 0.185,-0.465L0.185,-0.547L0.095,-0.547L0.095,0L0.185,0L0.185,-0.309C0.185,-0.365 0.196,-0.407 0.219,-0.437C0.242,-0.467 0.274,-0.482 0.316,-0.482C0.353,-0.482 0.38,-0.47 0.397,-0.447C0.414,-0.424 0.423,-0.388 0.423,-0.339L0.423,0L0.513,0L0.513,-0.339Z" style="fill:rgb(0,255,0);fill-rule:nonzero;"/>
        </g>
        <g transform="matrix(16.6667,0,0,16.6667,33.6009,12.9784)">
            <path d="M0.313,-0.275L0.427,-0.275L0.427,-0.255C0.426,-0.194 0.412,-0.147 0.384,-0.113C0.355,-0.078 0.317,-0.061 0.267,-0.061C0.232,-0.061 0.204,-0.07 0.185,-0.088C0.165,-0.107 0.155,-0.132 0.155,-0.165C0.155,-0.201 0.168,-0.229 0.195,-0.247C0.221,-0.266 0.261,-0.275 0.313,-0.275ZM0.517,-0.312C0.517,-0.36 0.514,-0.396 0.509,-0.42C0.504,-0.444 0.495,-0.464 0.483,-0.48C0.463,-0.507 0.437,-0.527 0.405,-0.54C0.373,-0.553 0.334,-0.56 0.289,-0.56C0.26,-0.56 0.231,-0.557 0.2,-0.551C0.17,-0.544 0.138,-0.535 0.105,-0.522L0.105,-0.432C0.135,-0.449 0.165,-0.462 0.196,-0.471C0.228,-0.479 0.258,-0.484 0.289,-0.484C0.337,-0.484 0.372,-0.474 0.394,-0.454C0.415,-0.435 0.426,-0.403 0.427,-0.359L0.427,-0.345L0.306,-0.345C0.227,-0.345 0.167,-0.329 0.126,-0.298C0.085,-0.266 0.065,-0.22 0.065,-0.159C0.065,-0.106 0.082,-0.064 0.115,-0.033C0.148,-0.002 0.192,0.014 0.248,0.014C0.29,0.014 0.325,0.006 0.354,-0.009C0.383,-0.024 0.408,-0.049 0.427,-0.081L0.427,0L0.517,0L0.517,-0.312Z" style="fill:rgb(0,255,0);fill-rule:nonzero;"/>
        </g>
        <g transform="matrix(16.6667,0,0,16.6667,43.6351,12.9784)">
            <path d="M0.475,-0.266C0.475,-0.303 0.467,-0.332 0.45,-0.353C0.434,-0.373 0.411,-0.384 0.382,-0.384C0.353,-0.384 0.33,-0.373 0.314,-0.353C0.297,-0.332 0.289,-0.303 0.289,-0.266C0.289,-0.229 0.297,-0.2 0.314,-0.179C0.33,-0.158 0.353,-0.148 0.382,-0.148C0.411,-0.148 0.434,-0.158 0.45,-0.179C0.467,-0.2 0.475,-0.229 0.475,-0.266ZM0.566,-0.066L0.47,-0.066L0.47,-0.106C0.458,-0.089 0.443,-0.076 0.427,-0.068C0.41,-0.06 0.39,-0.056 0.366,-0.056C0.313,-0.056 0.27,-0.075 0.237,-0.114C0.204,-0.152 0.188,-0.203 0.188,-0.266C0.188,-0.329 0.204,-0.379 0.237,-0.418C0.269,-0.456 0.313,-0.475 0.366,-0.475C0.389,-0.475 0.41,-0.471 0.427,-0.463C0.445,-0.455 0.459,-0.444 0.47,-0.428L0.47,-0.448C0.47,-0.493 0.458,-0.527 0.434,-0.551C0.41,-0.575 0.375,-0.587 0.33,-0.587C0.262,-0.587 0.207,-0.557 0.164,-0.498C0.122,-0.438 0.1,-0.361 0.1,-0.265C0.1,-0.165 0.125,-0.086 0.174,-0.027C0.224,0.032 0.29,0.062 0.372,0.062C0.398,0.062 0.423,0.058 0.448,0.051C0.472,0.043 0.496,0.031 0.518,0.016L0.563,0.102C0.537,0.12 0.508,0.133 0.477,0.142C0.446,0.151 0.412,0.156 0.377,0.156C0.263,0.156 0.172,0.118 0.104,0.042C0.037,-0.034 0.003,-0.136 0.003,-0.265C0.003,-0.391 0.033,-0.492 0.094,-0.568C0.155,-0.643 0.236,-0.681 0.336,-0.681C0.407,-0.681 0.463,-0.66 0.504,-0.617C0.545,-0.574 0.566,-0.516 0.566,-0.442L0.566,-0.066Z" style="fill:rgb(255,255,0);fill-rule:nonzero;"/>
        </g>
        <g transform="matrix(16.6667,0,0,16.6667,53.6693,12.9784)">
            <path d="M0.531,-0.383C0.521,-0.357 0.507,-0.33 0.491,-0.302C0.475,-0.274 0.454,-0.26 0.428,-0.26C0.398,-0.26 0.361,-0.293 0.318,-0.358C0.274,-0.424 0.225,-0.457 0.17,-0.456C0.14,-0.456 0.11,-0.442 0.08,-0.413C0.05,-0.384 0.025,-0.34 0.006,-0.28L0.071,-0.243C0.086,-0.279 0.099,-0.309 0.112,-0.333C0.125,-0.356 0.144,-0.368 0.169,-0.368C0.193,-0.368 0.213,-0.359 0.228,-0.341C0.243,-0.322 0.268,-0.29 0.305,-0.245C0.342,-0.201 0.383,-0.177 0.428,-0.174C0.457,-0.174 0.485,-0.186 0.512,-0.209C0.539,-0.233 0.566,-0.276 0.594,-0.34L0.531,-0.383Z" style="fill:rgb(255,0,0);fill-rule:nonzero;"/>
        </g>
    </g>
    <g transform="matrix(1,0,0,1,-4.51238,24.6081)">
        <g opacity="0.52">
            <g transform="matrix(16.6667,0,0,16.6667,3.49838,12.9784)">
                <path d="M0.351,-0.198L0.351,-0.763L0.117,-0.763L0.117,-0.692L0.261,-0.692L0.261,-0.198C0.261,-0.135 0.276,-0.086 0.305,-0.052C0.335,-0.017 0.376,0 0.43,0L0.544,0L0.544,-0.076L0.439,-0.076C0.41,-0.076 0.388,-0.086 0.373,-0.106C0.358,-0.127 0.351,-0.157 0.351,-0.198Z" style="fill:rgb(0,255,0);fill-rule:nonzero;"/>
            </g>
            <g transform="matrix(16.6667,0,0,16.6667,13.5326,12.9784)">
                <path d="M0.313,-0.275L0.427,-0.275L0.427,-0.255C0.426,-0.194 0.412,-0.147 0.384,-0.113C0.355,-0.078 0.317,-0.061 0.267,-0.061C0.232,-0.061 0.204,-0.07 0.185,-0.088C0.165,-0.107 0.155,-0.132 0.155,-0.165C0.155,-0.201 0.168,-0.229 0.195,-0.247C0.221,-0.266 0.261,-0.275 0.313,-0.275ZM0.517,-0.312C0.517,-0.36 0.514,-0.396 0.509,-0.42C0.504,-0.444 0.495,-0.464 0.483,-0.48C0.463,-0.507 0.437,-0.527 0.405,-0.54C0.373,-0.553 0.334,-0.56 0.289,-0.56C0.26,-0.56 0.231,-0.557 0.2,-0.551C0.17,-0.544 0.138,-0.535 0.105,-0.522L0.105,-0.432C0.135,-0.449 0.165,-0.462 0.196,-0.471C0.228,-0.479 0.258,-0.484 0.289,-0.484C0.337,-0.484 0.372,-0.474 0.394,-0.454C0.415,-0.435 0.426,-0.403 0.427,-0.359L0.427,-0.345L0.306,-0.345C0.227,-0.345 0.167,-0.329 0.126,-0.298C0.085,-0.266 0.065,-0.22 0.065,-0.159C0.065,-0.106 0.082,-0.064 0.115,-0.033C0.148,-0.002 0.192,0.014 0.248,0.014C0.29,0.014 0.325,0.006 0.354,-0.009C0.383,-0.024 0.408,-0.049 0.427,-0.081L0.427,0L0.517,0L0.517,-0.312Z" style="fill:rgb(0,255,0);fill-rule:nonzero;"/>
            </g>
            <g transform="matrix(16.6667,0,0,16.6667,23.5667,12.9784)">
                <path d="M0.513,-0.339C0.513,-0.413 0.499,-0.469 0.472,-0.505C0.444,-0.542 0.403,-0.56 0.347,-0.56C0.31,-0.56 0.277,-0.552 0.25,-0.536C0.223,-0.52 0.201,-0.496 0.185,-0.465L0.185,-0.547L0.095,-0.547L0.095,0L0.185,0L0.185,-0.309C0.185,-0.365 0.196,-0.407 0.219,-0.437C0.242,-0.467 0.274,-0.482 0.316,-0.482C0.353,-0.482 0.38,-0.47 0.397,-0.447C0.414,-0.424 0.423,-0.388 0.423,-0.339L0.423,0L0.513,0L0.513,-0.339Z" style="fill:rgb(0,255,0);fill-rule:nonzero;"/>
            </g>
            <g transform="matrix(16.6667,0,0,16.6667,33.6009,12.9784)">
                <path d="M0.313,-0.275L0.427,-0.275L0.427,-0.255C0.426,-0.194 0.412,-0.147 0.384,-0.113C0.355,-0.078 0.317,-0.061 0.267,-0.061C0.232,-0.061 0.204,-0.07 0.185,-0.088C0.165,-0.107 0.155,-0.132 0.155,-0.165C0.155,-0.201 0.168,-0.229 0.195,-0.247C0.221,-0.266 0.261,-0.275 0.313,-0.275ZM0.517,-0.312C0.517,-0.36 0.514,-0.396 0.509,-0.42C0.504,-0.444 0.495,-0.464 0.483,-0.48C0.463,-0.507 0.437,-0.527 0.405,-0.54C0.373,-0.553 0.334,-0.56 0.289,-0.56C0.26,-0.56 0.231,-0.557 0.2,-0.551C0.17,-0.544 0.138,-0.535 0.105,-0.522L0.105,-0.432C0.135,-0.449 0.165,-0.462 0.196,-0.471C0.228,-0.479 0.258,-0.484 0.289,-0.484C0.337,-0.484 0.372,-0.474 0.394,-0.454C0.415,-0.435 0.426,-0.403 0.427,-0.359L0.427,-0.345L0.306,-0.345C0.227,-0.345 0.167,-0.329 0.126,-0.298C0.085,-0.266 0.065,-0.22 0.065,-0.159C0.065,-0.106 0.082,-0.064 0.115,-0.033C0.148,-0.002 0.192,0.014 0.248,0.014C0.29,0.014 0.325,0.006 0.354,-0.009C0.383,-0.024 0.408,-0.049 0.427,-0.081L0.427,0L0.517,0L0.517,-0.312Z" style="fill:rgb(0,255,0);fill-rule:nonzero;"/>
            </g>
            <g transform="matrix(16.6667,0,0,16.6667,43.6351,12.9784)">
                <path d="M0.475,-0.266C0.475,-0.303 0.467,-0.332 0.45,-0.353C0.434,-0.373 0.411,-0.384 0.382,-0.384C0.353,-0.384 0.33,-0.373 0.314,-0.353C0.297,-0.332 0.289,-0.303 0.289,-0.266C0.289,-0.229 0.297,-0.2 0.314,-0.179C0.33,-0.158 0.353,-0.148 0.382,-0.148C0.411,-0.148 0.434,-0.158 0.45,-0.179C0.467,-0.2 0.475,-0.229 0.475,-0.266ZM0.566,-0.066L0.47,-0.066L0.47,-0.106C0.458,-0.089 0.443,-0.076 0.427,-0.068C0.41,-0.06 0.39,-0.056 0.366,-0.056C0.313,-0.056 0.27,-0.075 0.237,-0.114C0.204,-0.152 0.188,-0.203 0.188,-0.266C0.188,-0.329 0.204,-0.379 0.237,-0.418C0.269,-0.456 0.313,-0.475 0.366,-0.475C0.389,-0.475 0.41,-0.471 0.427,-0.463C0.445,-0.455 0.459,-0.444 0.47,-0.428L0.47,-0.448C0.47,-0.493 0.458,-0.527 0.434,-0.551C0.41,-0.575 0.375,-0.587 0.33,-0.587C0.262,-0.587 0.207,-0.557 0.164,-0.498C0.122,-0.438 0.1,-0.361 0.1,-0.265C0.1,-0.165 0.125,-0.086 0.174,-0.027C0.224,0.032 0.29,0.062 0.372,0.062C0.398,0.062 0.423,0.058 0.448,0.051C0.472,0.043 0.496,0.031 0.518,0.016L0.563,0.102C0.537,0.12 0.508,0.133 0.477,0.142C0.446,0.151 0.412,0.156 0.377,0.156C0.263,0.156 0.172,0.118 0.104,0.042C0.037,-0.034 0.003,-0.136 0.003,-0.265C0.003,-0.391 0.033,-0.492 0.094,-0.568C0.155,-0.643 0.236,-0.681 0.336,-0.681C0.407,-0.681 0.463,-0.66 0.504,-0.617C0.545,-0.574 0.566,-0.516 0.566,-0.442L0.566,-0.066Z" style="fill:rgb(255,255,0);fill-rule:nonzero;"/>
            </g>
            <g transform="matrix(16.6667,0,0,16.6667,53.6693,12.9784)">
                <path d="M0.531,-0.383C0.521,-0.357 0.507,-0.33 0.491,-0.302C0.475,-0.274 0.454,-0.26 0.428,-0.26C0.398,-0.26 0.361,-0.293 0.318,-0.358C0.274,-0.424 0.225,-0.457 0.17,-0.456C0.14,-0.456 0.11,-0.442 0.08,-0.413C0.05,-0.384 0.025,-0.34 0.006,-0.28L0.071,-0.243C0.086,-0.279 0.099,-0.309 0.112,-0.333C0.125,-0.356 0.144,-0.368 0.169,-0.368C0.193,-0.368 0.213,-0.359 0.228,-0.341C0.243,-0.322 0.268,-0.29 0.305,-0.245C0.342,-0.201 0.383,-0.177 0.428,-0.174C0.457,-0.174 0.485,-0.186 0.512,-0.209C0.539,-0.233 0.566,-0.276 0.594,-0.34L0.531,-0.383Z" style="fill:rgb(255,0,0);fill-rule:nonzero;"/>
            </g>
        </g>
    </g>
    <g transform="matrix(1,0,0,1,-4.51238,1.79064)">
        <g opacity="0.25">
            <g transform="matrix(16.6667,0,0,16.6667,3.49838,12.9784)">
                <path d="M0.351,-0.198L0.351,-0.763L0.117,-0.763L0.117,-0.692L0.261,-0.692L0.261,-0.198C0.261,-0.135 0.276,-0.086 0.305,-0.052C0.335,-0.017 0.376,0 0.43,0L0.544,0L0.544,-0.076L0.439,-0.076C0.41,-0.076 0.388,-0.086 0.373,-0.106C0.358,-0.127 0.351,-0.157 0.351,-0.198Z" style="fill:rgb(0,255,0);fill-rule:nonzero;"/>
            </g>
            <g transform="matrix(16.6667,0,0,16.6667,13.5326,12.9784)">
                <path d="M0.313,-0.275L0.427,-0.275L0.427,-0.255C0.426,-0.194 0.412,-0.147 0.384,-0.113C0.355,-0.078 0.317,-0.061 0.267,-0.061C0.232,-0.061 0.204,-0.07 0.185,-0.088C0.165,-0.107 0.155,-0.132 0.155,-0.165C0.155,-0.201 0.168,-0.229 0.195,-0.247C0.221,-0.266 0.261,-0.275 0.313,-0.275ZM0.517,-0.312C0.517,-0.36 0.514,-0.396 0.509,-0.42C0.504,-0.444 0.495,-0.464 0.483,-0.48C0.463,-0.507 0.437,-0.527 0.405,-0.54C0.373,-0.553 0.334,-0.56 0.289,-0.56C0.26,-0.56 0.231,-0.557 0.2,-0.551C0.17,-0.544 0.138,-0.535 0.105,-0.522L0.105,-0.432C0.135,-0.449 0.165,-0.462 0.196,-0.471C0.228,-0.479 0.258,-0.484 0.289,-0.484C0.337,-0.484 0.372,-0.474 0.394,-0.454C0.415,-0.435 0.426,-0.403 0.427,-0.359L0.427,-0.345L0.306,-0.345C0.227,-0.345 0.167,-0.329 0.126,-0.298C0.085,-0.266 0.065,-0.22 0.065,-0.159C0.065,-0.106 0.082,-0.064 0.115,-0.033C0.148,-0.002 0.192,0.014 0.248,0.014C0.29,0.014 0.325,0.006 0.354,-0.009C0.383,-0.024 0.408,-0.049 0.427,-0.081L0.427,0L0.517,0L0.517,-0.312Z" style="fill:rgb(0,255,0);fill-rule:nonzero;"/>
            </g>
            <g transform="matrix(16.6667,0,0,16.6667,23.5667,12.9784)">
                <path d="M0.513,-0.339C0.513,-0.413 0.499,-0.469 0.472,-0.505C0.444,-0.542 0.403,-0.56 0.347,-0.56C0.31,-0.56 0.277,-0.552 0.25,-0.536C0.223,-0.52 0.201,-0.496 0.185,-0.465L0.185,-0.547L0.095,-0.547L0.095,0L0.185,0L0.185,-0.309C0.185,-0.365 0.196,-0.407 0.219,-0.437C0.242,-0.467 0.274,-0.482 0.316,-0.482C0.353,-0.482 0.38,-0.47 0.397,-0.447C0.414,-0.424 0.423,-0.388 0.423,-0.339L0.423,0L0.513,0L0.513,-0.339Z" style="fill:rgb(0,255,0);fill-rule:nonzero;"/>
            </g>
            <g transform="matrix(16.6667,0,0,16.6667,33.6009,12.9784)">
                <path d="M0.313,-0.275L0.427,-0.275L0.427,-0.255C0.426,-0.194 0.412,-0.147 0.384,-0.113C0.355,-0.078 0.317,-0.061 0.267,-0.061C0.232,-0.061 0.204,-0.07 0.185,-0.088C0.165,-0.107 0.155,-0.132 0.155,-0.165C0.155,-0.201 0.168,-0.229 0.195,-0.247C0.221,-0.266 0.261,-0.275 0.313,-0.275ZM0.517,-0.312C0.517,-0.36 0.514,-0.396 0.509,-0.42C0.504,-0.444 0.495,-0.464 0.483,-0.48C0.463,-0.507 0.437,-0.527 0.405,-0.54C0.373,-0.553 0.334,-0.56 0.289,-0.56C0.26,-0.56 0.231,-0.557 0.2,-0.551C0.17,-0.544 0.138,-0.535 0.105,-0.522L0.105,-0.432C0.135,-0.449 0.165,-0.462 0.196,-0.471C0.228,-0.479 0.258,-0.484 0.289,-0.484C0.337,-0.484 0.372,-0.474 0.394,-0.454C0.415,-0.435 0.426,-0.403 0.427,-0.359L0.427,-0.345L0.306,-0.345C0.227,-0.345 0.167,-0.329 0.126,-0.298C0.085,-0.266 0.065,-0.22 0.065,-0.159C0.065,-0.106 0.082,-0.064 0.115,-0.033C0.148,-0.002 0.192,0.014 0.248,0.014C0.29,0.014 0.325,0.006 0.354,-0.009C0.383,-0.024 0.408,-0.049 0.427,-0.081L0.427,0L0.517,0L0.517,-0.312Z" style="fill:rgb(0,255,0);fill-rule:nonzero;"/>
            </g>
            <g transform="matrix(16.6667,0,0,16.6667,43.6351,12.9784)">
                <path d="M0.475,-0.266C0.475,-0.303 0.467,-0.332 0.45,-0.353C0.434,-0.373 0.411,-0.384 0.382,-0.384C0.353,-0.384 0.33,-0.373 0.314,-0.353C0.297,-0.332 0.289,-0.303 0.289,-0.266C0.289,-0.229 0.297,-0.2 0.314,-0.179C0.33,-0.158 0.353,-0.148 0.382,-0.148C0.411,-0.148 0.434,-0.158 0.45,-0.179C0.467,-0.2 0.475,-0.229 0.475,-0.266ZM0.566,-0.066L0.47,-0.066L0.47,-0.106C0.458,-0.089 0.443,-0.076 0.427,-0.068C0.41,-0.06 0.39,-0.056 0.366,-0.056C0.313,-0.056 0.27,-0.075 0.237,-0.114C0.204,-0.152 0.188,-0.203 0.188,-0.266C0.188,-0.329 0.204,-0.379 0.237,-0.418C0.269,-0.456 0.313,-0.475 0.366,-0.475C0.389,-0.475 0.41,-0.471 0.427,-0.463C0.445,-0.455 0.459,-0.444 0.47,-0.428L0.47,-0.448C0.47,-0.493 0.458,-0.527 0.434,-0.551C0.41,-0.575 0.375,-0.587 0.33,-0.587C0.262,-0.587 0.207,-0.557 0.164,-0.498C0.122,-0.438 0.1,-0.361 0.1,-0.265C0.1,-0.165 0.125,-0.086 0.174,-0.027C0.224,0.032 0.29,0.062 0.372,0.062C0.398,0.062 0.423,0.058 0.448,0.051C0.472,0.043 0.496,0.031 0.518,0.016L0.563,0.102C0.537,0.12 0.508,0.133 0.477,0.142C0.446,0.151 0.412,0.156 0.377,0.156C0.263,0.156 0.172,0.118 0.104,0.042C0.037,-0.034 0.003,-0.136 0.003,-0.265C0.003,-0.391 0.033,-0.492 0.094,-0.568C0.155,-0.643 0.236,-0.681 0.336,-0.681C0.407,-0.681 0.463,-0.66 0.504,-0.617C0.545,-0.574 0.566,-0.516 0.566,-0.442L0.566,-0.066Z" style="fill:rgb(255,255,0);fill-rule:nonzero;"/>
            </g>
            <g transform="matrix(16.6667,0,0,16.6667,53.6693,12.9784)">
                <path d="M0.531,-0.383C0.521,-0.357 0.507,-0.33 0.491,-0.302C0.475,-0.274 0.454,-0.26 0.428,-0.26C0.398,-0.26 0.361,-0.293 0.318,-0.358C0.274,-0.424 0.225,-0.457 0.17,-0.456C0.14,-0.456 0.11,-0.442 0.08,-0.413C0.05,-0.384 0.025,-0.34 0.006,-0.28L0.071,-0.243C0.086,-0.279 0.099,-0.309 0.112,-0.333C0.125,-0.356 0.144,-0.368 0.169,-0.368C0.193,-0.368 0.213,-0.359 0.228,-0.341C0.243,-0.322 0.268,-0.29 0.305,-0.245C0.342,-0.201 0.383,-0.177 0.428,-0.174C0.457,-0.174 0.485,-0.186 0.512,-0.209C0.539,-0.233 0.566,-0.276 0.594,-0.34L0.531,-0.383Z" style="fill:rgb(255,0,0);fill-rule:nonzero;"/>
            </g>
        </g>
    </g>
</svg>
